<?xml version="1.0" encoding="UTF-8" standalone="no"?>
<!-- Created with Inkscape (http://www.inkscape.org/) -->

<svg
   xmlns:dc="http://purl.org/dc/elements/1.1/"
   xmlns:cc="http://creativecommons.org/ns#"
   xmlns:rdf="http://www.w3.org/1999/02/22-rdf-syntax-ns#"
   xmlns:svg="http://www.w3.org/2000/svg"
   xmlns="http://www.w3.org/2000/svg"
   xmlns:sodipodi="http://sodipodi.sourceforge.net/DTD/sodipodi-0.dtd"
   xmlns:inkscape="http://www.inkscape.org/namespaces/inkscape"
   width="210mm"
   height="297mm"
   viewBox="0 0 744.09448819 1052.3622047"
   id="svg2"
   version="1.1"
   inkscape:version="0.91 r13725"
   sodipodi:docname="drawing.svg">
  <sodipodi:namedview
     id="base"
     pagecolor="#ffffff"
     bordercolor="#666666"
     borderopacity="1.0"
     inkscape:pageopacity="0.0"
     inkscape:pageshadow="2"
     inkscape:zoom="5.4679243"
     inkscape:cx="305.93489"
     inkscape:cy="391.61366"
     inkscape:document-units="px"
     inkscape:current-layer="layer1"
     showgrid="false"
     inkscape:window-width="3200"
     inkscape:window-height="1664"
     inkscape:window-x="0"
     inkscape:window-y="64"
     inkscape:window-maximized="1" />
  <defs
     id="defs4" />
  <metadata
     id="metadata7">
    <rdf:RDF>
      <cc:Work
         rdf:about="">
        <dc:format>image/svg+xml</dc:format>
        <dc:type
           rdf:resource="http://purl.org/dc/dcmitype/StillImage" />
        <dc:title />
      </cc:Work>
    </rdf:RDF>
  </metadata>
  <g
     inkscape:label="Layer 1"
     inkscape:groupmode="layer"
     id="layer1">
    <a
       id="a4185">
      <path
         style="color:#000000;font-style:normal;font-variant:normal;font-weight:normal;font-stretch:normal;font-size:medium;line-height:normal;font-family:sans-serif;text-indent:0;text-align:start;text-decoration:none;text-decoration-line:none;text-decoration-style:solid;text-decoration-color:#000000;letter-spacing:normal;word-spacing:normal;text-transform:none;direction:ltr;block-progression:tb;writing-mode:lr-tb;baseline-shift:baseline;text-anchor:start;white-space:normal;clip-rule:nonzero;display:inline;overflow:visible;visibility:visible;opacity:1;isolation:auto;mix-blend-mode:normal;color-interpolation:sRGB;color-interpolation-filters:linearRGB;solid-color:#000000;solid-opacity:1;fill:#000000;fill-opacity:1;fill-rule:nonzero;stroke:none;stroke-width:5;stroke-linecap:butt;stroke-linejoin:miter;stroke-miterlimit:4;stroke-dasharray:none;stroke-dashoffset:0;stroke-opacity:1;color-rendering:auto;image-rendering:auto;shape-rendering:auto;text-rendering:auto;enable-background:accumulate"
         d="m 93.957031,649.71094 c -24.337065,0 -44.060547,20.23844 -44.060547,45.0664 0,24.82797 19.723482,45.06641 44.060547,45.06641 13.878059,0 26.256279,-6.5814 34.332029,-16.8418 l -3.93359,-3.03711 c -7.16106,9.08533 -18.11877,14.87891 -30.398439,14.87891 -21.569464,0 -39.060547,-17.87679 -39.060547,-40.06641 0,-22.18962 17.491083,-40.0664 39.060547,-40.0664 12.017499,0 22.769819,5.55002 29.935549,14.30273 l 3.88672,-3.09765 c -8.08183,-9.89537 -20.23327,-16.20508 -33.822269,-16.20508 z"
         id="path4183"
         inkscape:connector-curvature="0"
         sodipodi:nodetypes="sssccsssccs" />
    </a>
    <path
       style="color:#000000;font-style:normal;font-variant:normal;font-weight:normal;font-stretch:normal;font-size:medium;line-height:normal;font-family:sans-serif;text-indent:0;text-align:start;text-decoration:none;text-decoration-line:none;text-decoration-style:solid;text-decoration-color:#000000;letter-spacing:normal;word-spacing:normal;text-transform:none;direction:ltr;block-progression:tb;writing-mode:lr-tb;baseline-shift:baseline;text-anchor:start;white-space:normal;clip-rule:nonzero;display:inline;overflow:visible;visibility:visible;opacity:1;isolation:auto;mix-blend-mode:normal;color-interpolation:sRGB;color-interpolation-filters:linearRGB;solid-color:#000000;solid-opacity:1;fill:#000000;fill-opacity:1;fill-rule:nonzero;stroke:none;stroke-width:5;stroke-linecap:butt;stroke-linejoin:miter;stroke-miterlimit:4;stroke-dasharray:none;stroke-dashoffset:0;stroke-opacity:1;color-rendering:auto;image-rendering:auto;shape-rendering:auto;text-rendering:auto;enable-background:accumulate"
       d="m 187.18164,666.71875 c -19.99741,0 -36.24219,16.38859 -36.24219,36.51563 0,20.12703 16.24478,36.51757 36.24219,36.51757 19.99741,0 36.24219,-16.39054 36.24219,-36.51757 0,-20.12704 -16.24478,-36.51563 -36.24219,-36.51563 z m 0,5 c 17.27324,0 31.24219,14.069 31.24219,31.51563 0,17.44662 -13.96895,31.51757 -31.24219,31.51757 -17.27324,0 -31.24219,-14.07095 -31.24219,-31.51757 0,-17.44663 13.96895,-31.51563 31.24219,-31.51563 z"
       id="path3377"
       inkscape:connector-curvature="0" />
    <path
       style="fill:#000000"
       d="m 93.554447,648.11305 z m 92.319643,21.08828 c -123.91606,255.44057 -61.95803,127.72028 0,0 z m 65.86881,17.83983 c 0,-50.02292 0.0297,-50.93571 1.8134,-55.70305 3.49201,-9.33325 13.65031,-17.34687 23.46251,-18.50898 4.06329,-0.48124 4.16334,-0.43974 4.16334,1.72687 0,1.87474 -0.36911,2.21997 -2.37353,2.21997 -4.82153,0 -10.55538,2.72574 -14.92432,7.09468 -6.41124,6.41125 -7.09467,9.18226 -7.09467,28.76597 l 0,16.21518 6.09813,0.24713 c 5.45501,0.22107 6.09813,0.42454 6.09813,1.92937 0,1.50483 -0.64312,1.70831 -6.09813,1.92938 l -6.09813,0.24713 0,32.34632 0,32.34633 -2.52337,0 -2.52336,0 z m 80.68077,48.04459 c -6.16341,-2.53555 -10.23278,-5.72143 -13.38306,-10.47748 -5.0763,-7.66381 -5.05472,-7.39678 -5.05472,-62.56441 l 0,-50.31462 2.52336,0 2.52337,0 0,28.59813 0,28.59813 4.53617,0 c 3.37065,0 4.66807,0.34368 5.04946,1.33759 0.86043,2.24223 -0.23253,2.86802 -5.00911,2.86802 l -4.57652,0 0,20.03708 c 0,22.81302 0.47827,25.34666 5.96038,31.57466 3.60673,4.09746 10.69129,8.10788 14.32289,8.10788 3.38654,0 4.95037,0.82556 4.95037,2.61336 0,2.28325 -5.82516,2.09715 -11.84259,-0.37834 z M 210.44362,659.13491 c -0.41486,-1.0811 -4.40534,-0.93838 -25.17051,-0.93838 -13.32856,0 -24.83246,-0.22975 -25.56422,-0.51055 -0.73176,-0.28081 -1.33047,-1.22707 -1.33047,-2.10281 0,-1.38872 0.67196,-1.59667 5.25701,-1.62682 2.89135,-0.019 14.3895,-1.2501 25.44392,-0.21028 l 20.76885,-0.0464 -0.29177,-2.185 c -0.51211,-3.83511 -1.3314,-4.25273 -18.88681,-4.25273 -8.89477,0 -16.77102,-0.22975 -17.50278,-0.51055 -0.73177,-0.28081 -1.33048,-1.18657 -1.33048,-2.01282 0,-0.82624 0.59871,-1.73201 1.33048,-2.01281 0.73176,-0.2808 8.1126,-0.51055 16.40187,-0.51055 12.1662,0 15.07139,-0.22109 15.07139,-1.14698 0,-1.83552 -4.14777,-5.4743 -7.46364,-6.54778 -2.13999,-0.69279 -17.9111,-1.09313 -52.8428,-1.34139 l -49.792423,-0.35387 -0.25431,4.90529 c -0.238677,4.60375 -0.38357,4.90529 -2.35711,4.90529 -1.93606,0 -2.13685,-0.36685 -2.53221,-4.62617 -0.23618,-2.54439 -0.71731,-5.07609 -1.06918,-5.62601 -1.03441,-1.61659 -9.75933,-6.30905 -10.67663,-5.74213 -0.46222,0.28567 -1.999,2.20335 -3.41506,4.26153 -2.72453,3.95996 -3.05699,4.15845 -4.95418,2.95775 -0.97316,-0.61589 -0.40417,-2.07718 3.02448,-7.76749 8.96422,-14.87735 10.80371,-17.50446 12.26297,-17.51364 2.10911,-0.0133 1.116208,1.53779 -1.15397,7.76402 l -2.62594,5.20195 1.92975,1.29276 c 1.061362,0.71102 4.03736,2.18817 6.61334,3.28257 4.52946,1.92433 5.61633,2.00455 33.028183,2.43789 l 28.34459,0.44808 0.26146,-4.12013 c 0.24074,-3.79363 0.44477,-4.14123 2.57455,-4.38629 2.21371,-0.25471 2.31308,-0.1069 2.31308,3.44063 l 0,3.70678 20.71322,0.53085 c 23.45284,0.60106 25.24619,1.03206 31.05705,7.46399 4.59207,5.08287 6.50276,10.07543 6.94154,18.13792 -0.23359,3.45354 0.44468,7.26255 -2.11567,7.19789 -1.94033,0 -1.74129,-1.14969 -2.00757,-1.84361 z"
       id="path3367"
       inkscape:connector-curvature="0"
       sodipodi:nodetypes="ccccssssssscssscccccsssscccccssscssssssscssscssssssssscsssssssscscssscssscssccs" />
    <text
       xml:space="preserve"
       style="font-style:normal;font-variant:normal;font-weight:normal;font-stretch:normal;font-size:40px;line-height:125%;font-family:Sawasdee;-inkscape-font-specification:Sawasdee;letter-spacing:0px;word-spacing:0px;fill:#000000;fill-opacity:1;stroke:none;stroke-width:1px;stroke-linecap:butt;stroke-linejoin:miter;stroke-opacity:1"
       x="403.20264"
       y="709.52051"
       id="text3369"
       sodipodi:linespacing="125%"><tspan
         sodipodi:role="line"
         id="tspan3371"
         x="403.20264"
         y="709.52051"
         style="font-style:normal;font-variant:normal;font-weight:normal;font-stretch:normal;font-size:90px;font-family:'Lobster Two';-inkscape-font-specification:'Lobster Two';fill:#4d4d4d">labs</tspan></text>
  </g>
</svg>
